<svg width="23" height="24" viewBox="0 0 23 24" fill="none" xmlns="http://www.w3.org/2000/svg">
<path d="M19.5021 2.99096C18.3623 4.15305 17.2271 5.30553 16.1155 6.43881C15.6351 6.15069 15.1688 5.81935 14.6601 5.57925C12.7242 4.66686 10.7695 4.67166 8.8383 5.57444C7.02959 6.4244 5.7814 7.83139 5.17378 9.76181C4.41074 12.1868 4.80639 14.4486 6.36075 16.451C7.48648 17.906 8.98431 18.7512 10.7883 19.0105C12.1354 19.2026 13.4543 19.0537 14.7119 18.5351C16.4829 17.8004 17.6039 16.4846 18.042 14.5734C18.0467 14.5446 18.0467 14.511 18.0514 14.4534C15.9601 14.4534 13.8782 14.4534 11.7822 14.4534C11.7822 12.9023 11.7822 11.3801 11.7822 9.82903C11.8858 9.82423 11.9847 9.81463 12.0836 9.81463C15.5362 9.81463 18.9934 9.81943 22.446 9.80502C22.7145 9.80502 22.771 9.92507 22.8087 10.1412C23.0065 11.2024 23.0489 12.2685 22.9453 13.3441C22.8228 14.583 22.5779 15.7883 22.1257 16.9504C21.2308 19.2602 19.7612 21.0754 17.6699 22.3527C15.197 23.8653 12.5122 24.2975 9.69555 23.8077C6.98249 23.3323 4.70748 22.0022 2.88935 19.8941C1.72123 18.5399 0.911079 16.984 0.435352 15.2457C-0.0403758 13.5074 -0.120449 11.7402 0.166872 9.96829C0.515425 7.83619 1.3821 5.92979 2.75276 4.2731C4.35892 2.33308 6.36546 1.01733 8.77707 0.397865C11.7303 -0.360854 14.58 -0.0439209 17.2836 1.4303C18.0844 1.86728 18.8239 2.3907 19.5021 2.99096Z" fill="black"/>
</svg>
