<svg width="21" height="24" viewBox="0 0 21 24" fill="none" xmlns="http://www.w3.org/2000/svg">
<path fill-rule="evenodd" clip-rule="evenodd" d="M5.67929 18.6616C6.1499 18.9123 6.67403 19.0432 7.20608 19.043C8.97836 19.043 10.4251 17.6194 10.4904 15.845L10.497 0H14.4117C14.412 0.336542 14.443 0.67234 14.5042 1.00316H11.6379V1.00371H15.5531C15.5525 2.32981 16.0285 3.61108 16.8927 4.60959L16.8937 4.61087C17.7753 5.1924 18.8056 5.5016 19.8586 5.5006V6.3811C20.2271 6.4608 20.6081 6.50325 21 6.50325V10.4576C19.0455 10.4599 17.1399 9.84105 15.5531 8.68875V16.7234C15.5531 20.7355 12.3204 24 8.34698 24C7.35749 24.0002 6.37859 23.7941 5.47164 23.3944C4.56533 22.9951 3.75046 22.4112 3.07791 21.6792L3.07644 21.6782C1.21816 20.3606 0 18.1817 0 15.7202C0 11.7076 3.23265 8.4425 7.20608 8.4425C7.53103 8.44405 7.85543 8.46795 8.17716 8.51395V9.45005C8.19979 9.4496 8.22226 9.4488 8.24484 9.44805C8.27871 9.44685 8.31267 9.44565 8.34698 9.44565C8.67188 9.4472 8.99633 9.4711 9.31801 9.5171V13.5534C9.01103 13.4561 8.68609 13.3995 8.34698 13.3995C7.47439 13.4005 6.63784 13.751 6.02087 14.3742C5.40391 14.9973 5.05693 15.8422 5.05609 16.7234C5.05614 17.4193 5.27394 18.0975 5.67845 18.6611L5.67929 18.6616ZM1.6162 19.3199C1.95064 20.1998 2.44974 20.9981 3.07485 21.6765C2.43702 20.9872 1.9445 20.1855 1.6162 19.3199Z" fill="black"/>
</svg>
