<svg width="26" height="21" viewBox="0 0 26 21" fill="none" xmlns="http://www.w3.org/2000/svg">
<path d="M26 2.48302C25.0444 2.90759 24.0168 3.19063 22.9327 3.32439C24.035 2.66837 24.8827 1.62202 25.2806 0.385761C24.2494 0.992022 23.1071 1.43713 21.8915 1.67178C20.9208 0.640043 19.5363 0 18.0025 0C15.0558 0 12.6679 2.37391 12.6679 5.30067C12.6679 5.71474 12.7161 6.1183 12.8072 6.51C8.37453 6.28676 4.44313 4.17398 1.81295 0.96737C1.35083 1.75076 1.09086 2.66837 1.09086 3.63665C1.09086 5.47689 2.03057 7.09663 3.46336 8.05122C2.58875 8.02428 1.7656 7.7805 1.04488 7.38926C1.04488 7.40524 1.04488 7.42898 1.04488 7.45135C1.04488 10.0229 2.88423 12.164 5.32229 12.6516C4.87656 12.7739 4.4058 12.842 3.92047 12.842C3.57581 12.842 3.24027 12.8027 2.91519 12.7443C3.59403 14.8456 5.56359 16.3818 7.89693 16.427C6.07124 17.8463 3.77204 18.6964 1.27161 18.6964C0.839547 18.6964 0.417497 18.6717 0 18.6211C2.36157 20.1207 5.16658 21 8.17739 21C17.9883 21 23.3552 12.9214 23.3552 5.91333C23.3552 5.6837 23.348 5.45498 23.337 5.229C24.3846 4.48761 25.287 3.55174 26 2.48302Z" fill="black"/>
</svg>
